<svg width="32" height="32" viewBox="0 0 32 32" fill="none" xmlns="http://www.w3.org/2000/svg">
<path d="M6 15.25C5.58579 15.25 5.25 15.5858 5.25 16C5.25 16.4142 5.58579 16.75 6 16.75V15.25ZM27 16.75C27.4142 16.75 27.75 16.4142 27.75 16C27.75 15.5858 27.4142 15.25 27 15.25V16.75ZM5 16L4.46967 15.4697C4.17678 15.7626 4.17678 16.2374 4.46967 16.5303L5 16ZM13.5303 8.53033C13.8232 8.23744 13.8232 7.76256 13.5303 7.46967C13.2374 7.17678 12.7626 7.17678 12.4697 7.46967L13.5303 8.53033ZM12.4697 24.5303C12.7626 24.8232 13.2374 24.8232 13.5303 24.5303C13.8232 24.2374 13.8232 23.7626 13.5303 23.4697L12.4697 24.5303ZM6 16.75H27V15.25H6V16.75ZM5.53033 16.5303L13.5303 8.53033L12.4697 7.46967L4.46967 15.4697L5.53033 16.5303ZM4.46967 16.5303L12.4697 24.5303L13.5303 23.4697L5.53033 15.4697L4.46967 16.5303Z" fill="white"/>
</svg>
