<svg width="32" height="32" viewBox="0 0 32 32" fill="none" xmlns="http://www.w3.org/2000/svg">
<path d="M5 15.25C4.58579 15.25 4.25 15.5858 4.25 16C4.25 16.4142 4.58579 16.75 5 16.75V15.25ZM26 16.75C26.4142 16.75 26.75 16.4142 26.75 16C26.75 15.5858 26.4142 15.25 26 15.25V16.75ZM27 16L27.5303 16.5303C27.8232 16.2374 27.8232 15.7626 27.5303 15.4697L27 16ZM19.5303 7.46967C19.2374 7.17678 18.7626 7.17678 18.4697 7.46967C18.1768 7.76256 18.1768 8.23744 18.4697 8.53033L19.5303 7.46967ZM18.4697 23.4697C18.1768 23.7626 18.1768 24.2374 18.4697 24.5303C18.7626 24.8232 19.2374 24.8232 19.5303 24.5303L18.4697 23.4697ZM5 16.75H26V15.25H5V16.75ZM27.5303 15.4697L19.5303 7.46967L18.4697 8.53033L26.4697 16.5303L27.5303 15.4697ZM26.4697 15.4697L18.4697 23.4697L19.5303 24.5303L27.5303 16.5303L26.4697 15.4697Z" fill="#2E4454"/>
</svg>
